<svg width="127" height="48" viewBox="0 0 127 48" fill="none" xmlns="http://www.w3.org/2000/svg">
<g style="mix-blend-mode:luminosity" clip-path="url(#clip0_333_1359)">
<path fill-rule="evenodd" clip-rule="evenodd" d="M126.106 30.5633C120.85 38.4606 112.527 36.1691 110.027 34.3749C108.963 35.0147 107.098 36.417 104.61 36.255C99.3126 35.9104 97.4155 29.2007 97.4155 29.2007C97.4536 29.2275 95.8375 29.6949 94.964 29.6866C94.9528 31.6542 93.0337 36.3546 87.8544 36.2945C82.0424 36.2273 80.8609 28.5531 80.8609 28.5531C80.8609 28.5531 80.2825 29.2649 78.0834 29.9739C78.1941 28.4622 78.1132 36.0644 71.1473 36.1761C65.6403 36.2646 64.1538 28.4348 64.1538 28.4348C64.1538 28.4348 63.1984 29.3143 61.347 29.6194C61.4647 28.0831 61.2734 36.2019 54.3067 36.1761C49.5987 36.1588 47.9898 31.353 48.1149 30.686C48.2746 29.8359 46.5238 36.2957 41.9506 36.195C40.0635 36.1459 38.6565 34.9349 37.7737 33.3204C36.5918 34.5189 34.8759 36.195 32.951 36.195C29.4957 36.195 27.9724 33.6337 28.2304 26.3179C28.2524 25.4502 28.1817 25.109 27.2085 24.9792C26.6244 24.8928 26.0261 24.7292 25.3932 24.643C25.1903 25.243 23.4696 35.9998 17.5527 36.204C15.5677 36.2725 14.4823 34.7485 13.591 33.6174C12.2246 35.2194 10.4209 36.255 7.85134 36.255C3.49876 36.255 0.533203 33.1365 0.533203 29.2895C0.533203 25.4425 3.49876 22.3242 7.85134 22.3242C8.62092 22.3242 8.83696 22.422 9.54002 22.6038C8.09416 10.9365 11.5087 9.11303 14.4957 9.11303C17.3634 9.11303 22.2625 15.012 15.369 29.9751C16.8995 34.4381 20.199 34.1857 21.7845 24.9982C22.1072 23.1307 21.2443 20.6105 22.5864 20.2588C25.0397 19.616 25.3 21.5446 26.4503 21.866C27.6666 22.2056 28.3765 22.1724 29.5442 22.3885C31.5394 22.7339 32.318 23.6838 32.0749 25.7996C31.783 28.4767 31.2723 32.3732 32.8293 32.8481C33.9522 33.1931 36.0022 31.1293 36.3619 30.0001C36.7215 28.871 36.7967 28.4845 36.8286 27.6563C36.8772 25.8861 36.9383 24.5886 37.2789 23.2499C37.4247 22.7319 37.5908 22.3888 38.2521 22.3654C38.7962 22.3531 39.7913 22.2079 40.2293 22.51C40.8131 22.8988 40.7401 23.2933 40.6731 24.3316C39.9941 39.1353 45.2201 31.7452 46.7783 25.8279C46.2234 19.1369 46.6044 9.23555 51.3352 9.06949C53.7957 8.98313 54.8834 10.7301 55.003 12.034C55.3414 15.7168 53.4458 21.8172 50.9528 25.9197C49.528 34.2907 57.1824 35.9459 58.4065 29.2642C56.4038 28.4202 54.2395 25.0044 56.0007 23.3397C56.989 22.4055 61.1028 23.7476 61.1701 26.6748C63.188 26.1965 63.4574 25.1867 63.4854 25.354C62.9307 18.663 63.4452 9.23564 68.1764 9.06957C70.6364 8.98321 71.724 10.7301 71.8436 12.0341C72.1821 15.7168 70.2864 21.8173 67.7938 25.9199C66.3688 34.2907 74.0234 35.946 75.2471 29.2643C73.7644 29.0107 70.6345 25.3775 72.4404 23.3398C73.4055 22.2509 77.5042 24.5154 77.9631 26.7717C79.9015 26.2855 80.1648 25.3078 80.1926 25.4724C79.6378 18.7816 80.1523 9.35422 84.8834 9.18815C87.3435 9.10179 88.4311 10.8487 88.5507 12.1527C88.8891 15.8354 86.9935 21.936 84.5005 26.0385C83.0759 34.4095 90.7303 36.0644 91.9544 29.3827C89.9168 29.082 87.021 25.2458 89.3517 23.2833C90.2828 22.4992 93.8409 24.5346 94.6738 26.8568C95.831 26.8173 96.5514 26.4636 96.7058 26.4279C94.8583 18.573 96.2336 9.14836 101.323 9.06969C104.074 9.02721 106.763 10.3877 105.583 17.8606C104.456 24.9906 100.406 27.9827 100.415 28.0285C100.651 28.8827 102.729 36.0312 107.963 32.2594C107.692 31.7157 107.421 31.1603 107.269 30.4874C106.402 26.5677 108.105 22.1404 112.737 21.4249C115.39 21.0149 117.889 22.1598 118.285 24.741C118.935 28.9645 114.632 32.0233 112.995 32.6868C112.262 32.3178 119.639 36.5107 124.017 28.108C124.27 27.6282 124.576 27.6689 124.973 27.9162C125.253 28.0908 126.848 29.4299 126.106 30.5633ZM11.0175 28.2517C10.7947 27.6615 10.3376 26.361 10.176 25.7976C9.28572 25.1114 8.6503 25 7.5076 25C4.96817 25 3.4735 27.0809 3.4735 29.3247C3.4735 31.5684 5.10183 33.6496 7.64128 33.6496C9.842 33.6496 11.5169 32.3235 12.028 30.4462C11.6703 29.7143 11.3155 29.0417 11.0175 28.2517ZM14.4335 12.2015C12.6491 12.2015 12.0439 15.974 12.1613 19.1924C12.2652 22.0378 13.1623 24.5428 13.6277 25.6653C13.7459 25.8059 13.7239 25.7144 13.8294 25.8636C16.9276 19.8472 15.6426 12.2015 14.4335 12.2015ZM51.5901 12.32C49.2839 12.0855 49.2988 20.6001 49.5851 22.51C50.7829 20.8118 52.8635 12.7772 51.5901 12.32ZM68.4307 12.32C66.1245 12.0855 66.1394 20.6001 66.4259 22.51C67.6235 20.8118 69.7043 12.7772 68.4307 12.32ZM85.1379 12.4384C82.8316 12.204 82.8465 20.7186 83.1329 22.6287C84.3306 20.9303 86.4113 12.8956 85.1379 12.4384ZM101.578 11.8215C97.9845 12.461 98.8211 23.0789 99.3669 24.9412C103.599 19.789 103.687 11.628 101.578 11.8215ZM115.044 25.0903C114.861 24.4133 113.948 24.0515 113.317 24.1407C111.513 24.359 109.763 26.3505 110.441 29.3824C110.591 30.0576 110.969 30.6792 110.963 30.6585C115 28.2577 115.343 26.3659 115.044 25.0903ZM38.9594 20.0218C38.4437 20.0219 37.9397 19.8864 37.5109 19.6326C37.0821 19.3787 36.7478 19.0179 36.5504 18.5957C36.353 18.1735 36.3014 17.7089 36.402 17.2607C36.5024 16.8124 36.7508 16.4007 37.1154 16.0775C37.4799 15.7543 37.9445 15.5342 38.4502 15.4451C38.9559 15.3559 39.4801 15.4016 39.9566 15.5765C40.433 15.7514 40.8401 16.0476 41.1265 16.4276C41.413 16.8076 41.5659 17.2544 41.5659 17.7114C41.5659 18.0148 41.4985 18.3152 41.3675 18.5955C41.2366 18.8758 41.0446 19.1305 40.8025 19.345C40.5604 19.5596 40.2731 19.7298 39.9569 19.8459C39.6407 19.962 39.3018 20.0218 38.9594 20.0218Z" fill="#0D0C22"/>
</g>
<defs>
<clipPath id="clip0_333_1359">
<rect width="126.369" height="48" fill="white" transform="translate(0.533203)"/>
</clipPath>
</defs>
</svg>
