<svg width="129" height="48" viewBox="0 0 129 48" fill="none" xmlns="http://www.w3.org/2000/svg">
<g style="mix-blend-mode:luminosity" clip-path="url(#clip0_333_1360)">
<path d="M14.21 13.1064V22.1942H4.79305V13.1064H0.322266V34.7997H4.79305V26.0071H14.21V34.7997H18.6807V13.1064H14.21Z" fill="#33475B"/>
<path d="M32.989 27.7869C32.989 28.6563 32.5993 29.4901 31.9057 30.1049C31.2121 30.7196 30.2713 31.065 29.2904 31.065C28.3094 31.065 27.3687 30.7196 26.675 30.1049C25.9814 29.4901 25.5917 28.6563 25.5917 27.7869V18.4953H21.3509V27.7869C21.3509 29.6513 22.1866 31.4394 23.6741 32.7578C25.1616 34.0761 27.1791 34.8168 29.2827 34.8168C31.3863 34.8168 33.4038 34.0761 34.8913 32.7578C36.3788 31.4394 37.2145 29.6513 37.2145 27.7869V18.4953H32.989V27.7869Z" fill="#33475B"/>
<path d="M64.4104 19.4529C64.4104 17.5484 65.832 16.9446 67.3894 16.9446C68.6446 16.9446 70.3028 17.7911 71.3871 18.8181L74.1646 15.9176C72.778 14.2558 69.9655 13.1065 67.6633 13.1065C63.0632 13.1065 59.7359 15.4944 59.7359 19.4529C59.7359 26.7973 69.8647 24.4676 69.8647 28.5775C69.8647 29.8453 68.4759 30.9655 66.8856 30.9655C64.3775 30.9655 63.5648 29.8783 62.4127 28.729L59.3306 31.5693C61.3021 33.7145 63.7335 34.8036 66.6469 34.8036C71.0169 34.8036 74.5326 32.3866 74.5326 28.6086C74.5326 20.4547 64.4038 22.9882 64.4038 19.4529" fill="#33475B"/>
<path d="M127.072 31.3341C124.566 31.3341 123.854 30.3731 123.854 28.9015V22.3881H127.748V19.0877H123.854V14.7331L119.554 16.4435V29.7111C119.554 33.1047 122.196 34.815 125.819 34.815C126.387 34.8242 126.955 34.7839 127.514 34.6947L128.563 31.272C128.09 31.3011 127.547 31.3302 127.072 31.3302" fill="#33475B"/>
<path d="M49.1318 18.6049C47.0311 18.6049 45.5656 19.1446 44.1484 20.3774V13.2369H39.901V26.4715C39.901 31.4259 43.9425 34.8195 48.4834 34.8195C53.5215 34.8195 57.9529 31.3658 57.9529 26.7141C57.9529 22.1208 53.8742 18.6068 49.1318 18.6068V18.6049ZM49.1055 31.0318C48.1523 31.0318 47.2206 30.7813 46.4281 30.312C45.6356 29.8427 45.018 29.1757 44.6532 28.3952C44.2885 27.6148 44.1931 26.756 44.379 25.9275C44.5649 25.099 45.0239 24.3379 45.6979 23.7406C46.3718 23.1433 47.2305 22.7365 48.1653 22.5717C49.1001 22.4069 50.0691 22.4915 50.9497 22.8148C51.8302 23.138 52.5829 23.6855 53.1124 24.3878C53.6419 25.0902 53.9245 25.916 53.9245 26.7607C53.9245 27.8935 53.4168 28.9799 52.5131 29.7809C51.6093 30.5818 50.3836 31.0318 49.1055 31.0318Z" fill="#33475B"/>
<path d="M95.2501 26.5153C95.2501 21.8559 90.8275 18.4099 85.7806 18.4099C81.2397 18.4099 77.1983 21.8035 77.1983 26.758V40.0003H81.4456V32.8501C82.8607 34.0809 84.3283 34.6226 86.4268 34.6226C91.1692 34.6226 95.2479 31.1106 95.2479 26.5153H95.2501ZM91.2284 26.4687C91.2284 27.3134 90.9457 28.1392 90.4162 28.8416C89.8867 29.544 89.134 30.0914 88.2535 30.4147C87.3729 30.7379 86.4039 30.8225 85.4691 30.6577C84.5343 30.4929 83.6757 30.0861 83.0017 29.4888C82.3277 28.8915 81.8688 28.1304 81.6828 27.3019C81.4969 26.4734 81.5923 25.6146 81.957 24.8342C82.3218 24.0538 82.9395 23.3867 83.732 22.9174C84.5245 22.4481 85.4562 22.1976 86.4093 22.1976C87.6874 22.1976 88.9131 22.6476 89.8169 23.4486C90.7206 24.2495 91.2284 25.3359 91.2284 26.4687Z" fill="#33475B"/>
<path d="M108.929 18.3496V14.6066C109.487 14.3756 109.96 14.0088 110.292 13.5489C110.624 13.089 110.801 12.555 110.804 12.009V11.9216C110.802 11.1587 110.459 10.4276 109.85 9.88807C109.241 9.34858 108.416 9.04458 107.556 9.04254H107.457C106.596 9.04458 105.771 9.34858 105.163 9.88807C104.554 10.4276 104.211 11.1587 104.209 11.9216V12.009C104.211 12.555 104.389 13.089 104.721 13.5489C105.053 14.0088 105.525 14.3756 106.084 14.6066V18.3496C104.479 18.5671 102.968 19.1565 101.703 20.0581L90.1061 12.0614C90.1887 11.7976 90.2329 11.5256 90.2376 11.2519C90.2384 10.6095 90.0244 9.98128 89.6224 9.44673C89.2204 8.91217 88.6487 8.49527 87.9793 8.24873C87.31 8.00219 86.5733 7.93708 85.8622 8.06166C85.1512 8.18623 84.4978 8.49487 83.9847 8.94857C83.4715 9.40226 83.1217 9.98063 82.9795 10.6105C82.8372 11.2404 82.9089 11.8936 83.1855 12.4873C83.4621 13.0811 83.9311 13.5889 84.5333 13.9464C85.1354 14.3039 85.8437 14.4952 86.5685 14.496C87.2052 14.4939 87.8299 14.3432 88.38 14.0591L99.7815 21.9257C98.7546 23.2989 98.2188 24.9146 98.2442 26.5619C98.2696 28.2091 98.855 29.8113 99.9239 31.1591L96.4542 34.2343C96.1756 34.1557 95.8856 34.1138 95.5933 34.11C94.9976 34.11 94.4153 34.2666 93.92 34.5599C93.4247 34.8532 93.0386 35.2701 92.8107 35.7579C92.5827 36.2457 92.5231 36.7824 92.6393 37.3002C92.7555 37.818 93.0423 38.2937 93.4636 38.667C93.8848 39.0403 94.4215 39.2946 95.0057 39.3976C95.59 39.5006 96.1956 39.4477 96.7459 39.2457C97.2963 39.0436 97.7667 38.7015 98.0976 38.2625C98.4286 37.8235 98.6052 37.3074 98.6052 36.7794C98.6012 36.5204 98.554 36.2633 98.465 36.0165L101.898 32.9743C103.018 33.7328 104.319 34.2544 105.702 34.4993C107.084 34.7441 108.512 34.7058 109.875 34.3871C111.239 34.0685 112.502 33.478 113.568 32.6607C114.635 31.8434 115.477 30.8209 116.029 29.6713C116.582 28.5217 116.831 27.2754 116.757 26.0275C116.684 24.7796 116.289 23.5631 115.605 22.4709C114.92 21.3786 113.962 20.4395 112.805 19.7253C111.648 19.0111 110.322 18.5405 108.929 18.3496ZM107.507 30.6621C106.568 30.6621 105.65 30.4152 104.869 29.9527C104.088 29.4902 103.479 28.8329 103.12 28.0638C102.76 27.2947 102.666 26.4484 102.85 25.632C103.033 24.8155 103.485 24.0655 104.149 23.4769C104.813 22.8883 105.66 22.4874 106.581 22.325C107.502 22.1626 108.457 22.2459 109.325 22.5645C110.192 22.8831 110.934 23.4225 111.456 24.1147C111.978 24.8069 112.256 25.6206 112.256 26.4531C112.256 27.5694 111.756 28.6399 110.865 29.4293C109.975 30.2186 108.767 30.6621 107.507 30.6621Z" fill="#FF7A59"/>
</g>
<defs>
<clipPath id="clip0_333_1360">
<rect width="128.626" height="48" fill="white" transform="translate(0.322266)"/>
</clipPath>
</defs>
</svg>
