<svg width="126" height="48" viewBox="0 0 126 48" fill="none" xmlns="http://www.w3.org/2000/svg">
<g style="mix-blend-mode:luminosity" clip-path="url(#clip0_333_1362)">
<path d="M17.5598 38.0663C15.6757 38.3595 13.7585 38.4474 11.7752 38.6816L5.72587 22.9786V39.3555C3.84177 39.5313 2.12292 39.7656 0.337891 40V10H5.36248L12.2379 27.0217V10H17.5598V38.0663ZM27.9724 20.9863C30.022 20.9863 33.1622 20.8984 35.0463 20.8984V25.5858C32.6993 25.5858 29.9558 25.5858 27.9724 25.6737V32.6465C31.0797 32.4708 34.187 32.2362 37.3271 32.1483V36.6597L22.6834 37.6854V10H37.3271V14.6875H27.9724V20.9863ZM56.9952 14.6876H51.508V36.2501C49.723 36.2501 47.9379 36.2501 46.2193 36.3085V14.6876H40.7321V10H56.9954L56.9952 14.6876ZM65.5896 20.6642H72.8289V25.3516H65.5896V35.9864H60.3995V10H75.1758V14.6875H65.5896V20.6642ZM83.7702 31.8848C86.7783 31.9432 89.8193 32.1486 92.7614 32.2948V36.9238C88.0345 36.66 83.3075 36.3966 78.4814 36.3085V10H83.7702V31.8848ZM97.2238 37.2461C98.9096 37.3341 100.695 37.422 102.414 37.5975V10H97.2238V37.2461ZM125.586 10L118.875 24.2676L125.586 40C123.602 39.7656 121.619 39.4433 119.635 39.1503L115.834 30.4786L111.967 38.4474C110.049 38.1542 108.198 38.0663 106.282 37.8319L113.091 24.0917L106.942 10H112.628L116.099 17.8809L119.801 10H125.586V10Z" fill="#D81F26"/>
</g>
<defs>
<clipPath id="clip0_333_1362">
<rect width="125.241" height="48" fill="white" transform="translate(0.337891)"/>
</clipPath>
</defs>
</svg>
