<svg width="146" height="48" viewBox="0 0 146 48" fill="none" xmlns="http://www.w3.org/2000/svg">
<g style="mix-blend-mode:luminosity" clip-path="url(#clip0_333_1361)">
<path d="M51.0699 34.7749V20.2199H51.3625L63.3165 34.7749H67.0782V13.4006H62.8985V27.919H62.6059L50.652 13.4006H46.8902V34.7749H51.0699ZM78.9067 35.1049C84.424 35.1049 87.8095 31.9519 87.8095 26.6725C87.8095 21.4297 84.424 18.2401 78.9067 18.2401C73.4313 18.2401 70.004 21.4297 70.004 26.6725C70.0458 31.9519 73.3895 35.1049 78.9067 35.1049ZM78.9067 32.0252C75.9809 32.0252 74.3091 30.0821 74.3091 26.6725C74.3091 23.2995 75.9809 21.3198 78.9067 21.3198C81.8325 21.3198 83.5044 23.2995 83.5044 26.6725C83.5044 30.0821 81.8325 32.0252 78.9067 32.0252ZM91.6131 14.6105V18.68H88.6873V21.6131H91.6131V30.4487C91.6131 33.6017 93.2849 34.8483 97.5482 34.8483C98.3424 34.8483 99.1365 34.7749 99.7635 34.6649V31.8053C99.2619 31.8419 98.9275 31.8786 98.3424 31.8786C96.5869 31.8786 95.7927 31.182 95.7927 29.5688V21.6131H99.7635V18.68H95.7927V14.6105H91.6131ZM102.271 34.7749H106.451V18.5701H102.271V34.7749ZM104.361 15.8937C105.74 15.8937 106.869 14.9038 106.869 13.6939C106.869 12.4474 105.74 11.4575 104.361 11.4575C102.982 11.4575 101.853 12.4474 101.853 13.6939C101.853 14.9038 102.982 15.8937 104.361 15.8937ZM117.903 35.1049C123.421 35.1049 126.806 31.9519 126.806 26.6725C126.806 21.4297 123.421 18.2401 117.903 18.2401C112.428 18.2401 109.001 21.4297 109.001 26.6725C109.001 31.9519 112.344 35.1049 117.903 35.1049ZM117.903 32.0252C114.978 32.0252 113.306 30.0821 113.306 26.6725C113.306 23.2995 114.978 21.3198 117.903 21.3198C120.787 21.3198 122.501 23.2995 122.501 26.6725C122.459 30.0821 120.787 32.0252 117.903 32.0252ZM129.272 34.7749H133.452V25.3526C133.452 22.9696 135.04 21.4664 137.506 21.4664C140.056 21.4664 141.226 22.7129 141.226 25.1693V34.7749H145.406V24.2894C145.406 20.4032 143.149 18.2401 139.053 18.2401C136.294 18.2401 134.455 19.34 133.577 21.1731H133.285V18.5701H129.23C129.272 18.5701 129.272 34.7749 129.272 34.7749Z" fill="black"/>
<path fill-rule="evenodd" clip-rule="evenodd" d="M6.81404 12.0326C8.03055 12.9024 8.47056 12.8337 10.7483 12.6964L32.2054 11.5519C32.6713 11.5519 32.2831 11.1399 32.1278 11.0941L28.5559 8.82806C27.8829 8.37028 26.9511 7.82093 25.217 7.95826L4.45868 9.30874C3.70807 9.37741 3.55277 9.72075 3.86336 9.97254L6.81404 12.0326ZM8.1082 16.4502V36.4098C8.1082 37.4857 8.70352 37.8748 10.0753 37.8061L33.6549 36.593C35.0267 36.5243 35.182 35.7918 35.182 34.922V15.0998C35.182 14.23 34.7937 13.7493 33.9655 13.818L9.32471 15.0998C8.4188 15.1684 8.1082 15.5804 8.1082 16.4502ZM31.3771 17.5261C31.5324 18.1212 31.3771 18.7392 30.7042 18.8079L29.5653 19.0139V33.7547C28.5818 34.2125 27.6759 34.4871 26.8994 34.4871C25.6829 34.4871 25.3723 34.1438 24.4663 33.1367L17.0379 22.8135V32.7933L19.3933 33.2511C19.3933 33.2511 19.3933 34.4642 17.5038 34.4642L12.2754 34.7389C12.1201 34.4642 12.2754 33.8005 12.7931 33.6631L14.1649 33.3198V20.1355L12.2754 19.9981C12.1201 19.403 12.5083 18.5332 13.5695 18.4645L19.1862 18.1212L26.9252 28.5588V19.3343L24.9581 19.1283C24.8028 18.3959 25.424 17.8465 26.1746 17.7778L31.3771 17.5261ZM2.72451 7.47759L24.3369 6.08133C26.977 5.87532 27.6759 6.01266 29.3324 7.08847L36.2173 11.3688C37.3562 12.1013 37.7444 12.3073 37.7444 13.1084V36.6159C37.7444 38.0808 37.1491 38.9506 35.0267 39.0879L9.94591 40.4384C8.34115 40.5071 7.59054 40.3011 6.76228 39.3626L1.6633 33.5258C0.757388 32.45 0.369141 31.6488 0.369141 30.7104V9.81231C0.369141 8.59917 0.990336 7.61492 2.72451 7.47759Z" fill="black"/>
</g>
<defs>
<clipPath id="clip0_333_1361">
<rect width="145.551" height="48" fill="white" transform="translate(0.369141)"/>
</clipPath>
</defs>
</svg>
